# xmcd CD database file
#
# Track frame offsets:
#	150
#	20465
#	43350
#	66965
#	74285
#
# Disc length: 1226 seconds
#
# Revision: 0
# Processed by: cddbd v1.5.2PL0 Copyright (c) Steve Scherf et al.
# Submitted via: CDex 1.70beta2
#
DISCID=4604c805
DTITLE=S.E.N.S. - 組曲Ⅱ やさしさの選択
DYEAR=1900
DGENRE=New Age
TTITLE0=Aurora
TTITLE1=組曲 ～やさしさの選択～
TTITLE2=Afternoon Tea
TTITLE3=Recall
TTITLE4=人と時と風の中へ～Reprise～
EXTD=
EXTT0=
EXTT1=
EXTT2=
EXTT3=
EXTT4=
PLAYORDER=
